<?xml version="1.0" encoding="utf-8"?>
<!-- Generator: Adobe Illustrator 22.1.0, SVG Export Plug-In . SVG Version: 6.00 Build 0)  -->
<svg version="1.1" id="Layer_1" xmlns="http://www.w3.org/2000/svg" xmlns:xlink="http://www.w3.org/1999/xlink" x="0px" y="0px"
	 viewBox="0 0 203.2 51.5" style="enable-background:new 0 0 203.2 51.5;" xml:space="preserve">
<style type="text/css">
	.st0{fill:#FFFFFF;}
	.st1{fill:#29ABE2;}
</style>
<g id="Layer_13_2_">
	<g>
		<g>
			<g>
				<path class="st0" d="M106.2,26.5c0,2.2-1.7,3.9-3.9,3.9s-3.9-1.7-3.9-3.9s1.7-3.9,3.9-3.9C104.5,22.6,106.2,24.4,106.2,26.5"/>
				<path class="st0" d="M106.2,42.5c0,2.2-1.7,3.9-3.9,3.9s-3.9-1.7-3.9-3.9c0-2.2,1.7-3.9,3.9-3.9S106.2,40.3,106.2,42.5"/>
				<path class="st0" d="M58.5,40h1.6c6.8,0,9.9-5.2,9.9-9.9c0-2.6-0.9-5-2.4-6.9c-1.9-2-4.3-3.2-7.5-3.2h-1.6v6.3h1.6
					c2.3,0,3.6,1.9,3.6,3.7c0,1.9-1.3,3.7-3.6,3.7h-1.6V40z"/>
				<rect x="49.3" y="20.2" class="st0" width="6.5" height="29.2"/>
				<path class="st0" d="M84.4,49.7c-4.2,0-10.6-2.4-11.1-9.3h6.2c0.4,3.2,3.6,3.6,4.9,3.6c3.3,0,5.2-1.2,5.2-3.2
					c0-2.6-3.3-3-4.9-3.2h-0.4c-2.4-0.3-5-0.6-7-1.7c-2.3-1.3-3.5-3.3-3.7-6.2c-0.1-2.6,0.7-4.9,2.3-6.6c2-2.2,5.2-3.3,8.6-3.3
					c5,0,10.2,2.7,10.6,8.6h-6c-0.3-2-2-3.2-4.6-3.2c-2.9,0-4.6,1.3-4.6,3.5c0,2.7,3.6,3,5,3.2h0.3c4.7,0.6,9.3,1.9,10.5,6.6
					c0.1,0.7,0.1,1.4,0.1,2C95.6,46.2,90,49.7,84.4,49.7"/>
				<path class="st1" d="M14.6,21.9c0-3.7-2.9-6.6-6.6-6.6c-3.6,0-6.6,3-6.6,6.6c0,3.7,2.9,6.6,6.6,6.6
					C11.6,28.5,14.6,25.5,14.6,21.9"/>
				<path class="st0" d="M22.5,35.7h-7.2c0.4,7.6,6.3,13.4,13.7,14v-6.8C25.8,42.3,22.8,40,22.5,35.7 M15.5,33h7.2
					c0.7-3.7,3.5-5.9,6.5-6.3v-6.9C21.9,20.3,16.3,25.8,15.5,33 M38.3,35.7C38,40,35,42.3,31.8,42.9v6.8c7.3-0.7,13.2-6.5,13.7-14
					C45.5,35.7,38.3,35.7,38.3,35.7z M38.2,33h7.2c-0.9-7.2-6.5-12.5-13.7-13.2v6.9C34.9,27.1,37.6,29.2,38.2,33"/>
			</g>
			<g>
				<path class="st0" d="M118,26.8c-0.3,0.3-0.6,0.4-0.9,0.6c-0.3,0.1-0.7,0.1-1.2,0.1s-0.9,0-1.2-0.1c-0.3-0.1-0.7-0.4-1-0.7
					c-0.3-0.3-0.6-0.7-0.6-1.2c-0.1-0.3-0.1-1-0.1-1.9s0-1.4,0.1-1.9c0.1-0.4,0.3-0.9,0.6-1.2c0.3-0.3,0.6-0.6,1-0.7
					c0.4,0,0.9,0,1.3,0s0.9,0,1.2,0.1c0.3,0.3,0.6,0.4,0.9,0.7s0.6,0.7,0.6,1.2c0.1,0.4,0.1,1,0.1,1.9s0,1.4-0.1,1.9
					S118.4,26.4,118,26.8z M116.9,21.5c-0.3-0.3-0.6-0.4-1-0.4c-0.1,0-0.4,0-0.6,0.1c-0.1,0.1-0.3,0.1-0.4,0.3
					c-0.1,0.1-0.3,0.3-0.3,0.6c0,0.3,0,0.7,0,1.6c0,0.7,0,1.3,0,1.6c0,0.3,0.1,0.4,0.4,0.7c0.1,0.3,0.6,0.3,0.9,0.3
					c0.4,0,0.7-0.1,0.9-0.3c0.1-0.3,0.3-0.4,0.4-0.7c0-0.3,0.1-0.7,0.1-1.4c0-0.7,0-1.3-0.1-1.4C117.2,21.9,117,21.8,116.9,21.5z"/>
				<path class="st0" d="M124.1,27.7c-0.4,0-0.9-0.1-1.2-0.3c-0.3-0.1-0.7-0.4-1-0.7c-0.3-0.3-0.6-0.7-0.6-1.2
					c-0.1-0.4-0.1-1-0.1-1.9s0-1.4,0.1-1.9c0.1-0.4,0.3-0.9,0.6-1.2c0.3-0.3,0.6-0.6,1-0.7c0.3-0.1,0.7-0.1,1.2-0.1
					c0.7,0,1.4,0.1,1.9,0.6c0.6,0.4,0.9,1,1,1.9h-1.6c-0.1-0.3-0.3-0.6-0.4-0.9c-0.1-0.1-0.4-0.3-0.9-0.3c-0.4,0-0.7,0.1-0.9,0.3
					c-0.1,0.1-0.3,0.4-0.4,0.7c0,0.3-0.1,0.9-0.1,1.4c0,0.7,0,1.3,0.1,1.4c0,0.3,0.1,0.6,0.4,0.7c0.1,0.3,0.4,0.3,0.9,0.3
					c0.4,0,0.7-0.1,0.9-0.3c0.2-0.2,0.4-0.4,0.4-0.9h1.6c-0.1,0.7-0.4,1.4-1,1.9C125.5,27.4,124.8,27.7,124.1,27.7z"/>
				<path class="st0" d="M129.4,27.5v-7.6h5v1.3h-3.6v1.9h3v1.3h-3v1.9h3.6v1.3L129.4,27.5z"/>
				<path class="st0" d="M141.9,27.5l-0.4-1.4h-2.7l-0.4,1.4h-1.6l2.9-7.8h1.2l2.9,7.8H141.9z M140,22.1l-1,2.9h1.9L140,22.1z"/>
				<path class="st0" d="M150.2,27.5l-3-4.7v4.7h-1.4v-7.6h1.3l3,4.7v-4.7h1.4v7.8h-1.3V27.5z"/>
				<path class="st0" d="M154.6,27.5v-7.6h1.4v7.8h-1.4V27.5z"/>
				<path class="st0" d="M161.6,27.7c-0.4,0-0.9-0.1-1.2-0.3c-0.3-0.1-0.7-0.4-1-0.7c-0.3-0.3-0.6-0.7-0.6-1.2
					c-0.1-0.4-0.1-1-0.1-1.9s0-1.4,0.1-1.9c0.1-0.4,0.3-0.9,0.6-1.2c0.3-0.3,0.6-0.6,1-0.7c0.3-0.1,0.7-0.1,1.2-0.1
					c0.7,0,1.4,0.1,1.9,0.6c0.6,0.4,0.9,1,1,1.9h-1.6c-0.1-0.3-0.3-0.6-0.4-0.9c-0.1-0.1-0.4-0.3-0.9-0.3s-0.7,0.1-0.9,0.3
					c-0.1,0.1-0.3,0.4-0.4,0.7c0,0.3-0.1,0.9-0.1,1.4c0,0.7,0,1.3,0.1,1.4c0,0.3,0.1,0.6,0.4,0.7c0.1,0.3,0.4,0.3,0.9,0.3
					c0.4,0,0.7-0.1,0.9-0.3c0.2-0.2,0.4-0.4,0.4-0.9h1.6c-0.1,0.7-0.4,1.4-1,1.9C162.9,27.4,162.3,27.7,161.6,27.7z"/>
				<path class="st0" d="M116.3,35.7h-1.4v2.9h-1.4v-7.8h3c0.7,0,1.4,0.3,1.9,0.7c0.4,0.4,0.7,1,0.7,1.7s-0.3,1.3-0.7,1.7
					C117.7,35.4,117.2,35.7,116.3,35.7z M116.3,32.3h-1.4v2.2h1.4c0.3,0,0.6-0.1,0.9-0.3c0.1-0.1,0.3-0.4,0.3-0.7
					c0-0.3-0.1-0.6-0.3-0.7C116.9,32.3,116.6,32.3,116.3,32.3z"/>
				<path class="st0" d="M125.5,38.6l-1.4-3.2h-1.2v3.2h-1.4v-7.8h3c0.7,0,1.4,0.3,1.9,0.7c0.4,0.4,0.7,1,0.7,1.7
					c0,0.6-0.1,1-0.4,1.3s-0.6,0.6-1,0.7l1.7,3.3L125.5,38.6L125.5,38.6z M124.3,32.3h-1.4v2h1.4c0.3,0,0.6-0.1,0.9-0.3
					c0.1-0.1,0.3-0.4,0.3-0.7c0-0.3-0.1-0.6-0.3-0.7C124.9,32.3,124.6,32.3,124.3,32.3z"/>
				<path class="st0" d="M129.7,38.6v-7.8h5v1.3h-3.6V34h3v1.3h-3v1.9h3.6v1.3h-5V38.6z"/>
				<path class="st0" d="M139.7,38.7c-0.6,0-1.2-0.1-1.6-0.3c-0.4-0.1-0.9-0.4-1.3-0.9l1-1c0.3,0.3,0.6,0.4,0.9,0.4
					c0.3,0.1,0.7,0.1,1,0.1c0.9,0,1.4-0.3,1.4-1c0-0.3,0-0.4-0.1-0.6s-0.3-0.1-0.3-0.3c-0.1,0-0.3-0.1-0.4-0.1l-0.9-0.1
					c-0.7-0.1-1.2-0.3-1.6-0.7c-0.3-0.3-0.6-0.9-0.6-1.4c0-0.7,0.3-1.3,0.7-1.7c0.4-0.4,1.2-0.6,2-0.6c0.6,0,1,0,1.4,0.1
					s0.7,0.4,1.2,0.7l-1,1c-0.3-0.1-0.4-0.3-0.7-0.4c-0.4,0.1-0.7,0.1-1,0.1c-0.4,0-0.7,0.1-0.9,0.3c-0.2,0.2-0.3,0.4-0.3,0.7
					c0,0.1,0,0.3,0,0.3c0,0.1,0.1,0.1,0.3,0.3c0.2,0.2,0.3,0.1,0.7,0.3l0.9,0.1c0.7,0.1,1.2,0.3,1.4,0.6c0.3,0.3,0.4,0.6,0.6,0.7
					c0.1,0.3,0.1,0.6,0.1,1c0,0.7-0.3,1.3-0.9,1.7C141.3,38.5,140.6,38.7,139.7,38.7z"/>
				<path class="st0" d="M145.1,38.6v-7.8h5v1.3h-3.6V34h3v1.3h-3v1.9h3.6v1.3h-5V38.6z"/>
				<path class="st0" d="M157,38.6l-1.4-3.2h-1.2v3.2H153v-7.8h3c0.7,0,1.4,0.3,1.9,0.7c0.4,0.4,0.7,1,0.7,1.7c0,0.6-0.1,1-0.4,1.3
					c-0.3,0.3-0.6,0.6-1,0.7l1.7,3.3L157,38.6L157,38.6z M155.7,32.3h-1.4v2h1.4c0.3,0,0.6-0.1,0.9-0.3c0.1-0.1,0.3-0.4,0.3-0.7
					c0-0.3-0.1-0.6-0.3-0.7C156.4,32.3,156.1,32.3,155.7,32.3z"/>
				<path class="st0" d="M163.9,38.6h-1.2l-2.6-7.8h1.6l1.6,5l1.6-5h1.6L163.9,38.6z"/>
				<path class="st0" d="M172.5,38.6l-0.4-1.4h-2.9l-0.4,1.4h-1.6l2.9-7.8h1.2l2.9,7.8H172.5z M170.7,33.1l-1,2.9h1.9L170.7,33.1z"
					/>
				<path class="st0" d="M178.6,32.3v6.3h-1.4v-6.3H175V31h5.6v1.3H178.6z"/>
				<path class="st0" d="M183,38.6v-7.8h1.4v7.8H183z"/>
				<path class="st0" d="M192.1,37.9c-0.3,0.3-0.6,0.4-0.9,0.6c-0.3,0.1-0.7,0.1-1.2,0.1s-0.9,0-1.2-0.1c-0.3-0.1-0.7-0.4-1-0.7
					c-0.3-0.3-0.6-0.7-0.6-1.2c-0.1-0.4-0.1-1-0.1-1.9c0-0.9,0-1.4,0.1-1.9c0.1-0.4,0.3-0.9,0.6-1.2c0.3-0.3,0.6-0.6,1-0.7
					c0.3-0.1,0.7-0.1,1.2-0.1s0.9,0,1.2,0.1s0.7,0.4,1,0.7c0.3,0.3,0.6,0.7,0.6,1.2c0.1,0.4,0.1,1,0.1,1.9c0,0.9,0,1.4-0.1,1.9
					C192.7,37,192.5,37.4,192.1,37.9z M190.9,32.6c-0.3-0.3-0.6-0.4-1-0.4c-0.1,0-0.4,0-0.6,0.1c-0.1,0.1-0.3,0.1-0.4,0.3
					c-0.1,0.1-0.3,0.3-0.3,0.6c0,0.3,0,0.7,0,1.6c0,0.7,0,1.3,0,1.6c0,0.3,0.1,0.4,0.4,0.7c0.1,0.3,0.6,0.3,0.9,0.3
					c0.4,0,0.7-0.1,0.9-0.3c0.1-0.3,0.3-0.4,0.4-0.7c0-0.3,0.1-0.7,0.1-1.4s0-1.3-0.1-1.4C191.2,33,191.1,32.7,190.9,32.6z"/>
				<path class="st0" d="M200.1,38.6l-3-4.7v4.7h-1.4v-7.8h1.3l3,4.7v-4.7h1.4v7.8H200.1z"/>
				<path class="st0" d="M115.4,49.7c-0.6,0-1.2-0.1-1.6-0.3c-0.4-0.1-0.9-0.4-1.3-0.9l1-1c0.3,0.3,0.6,0.4,0.9,0.4
					c0.3,0.1,0.7,0.1,1,0.1c0.9,0,1.4-0.3,1.4-1c0-0.3,0-0.4-0.1-0.6c-0.1-0.1-0.3-0.1-0.3-0.3c-0.1,0.3-0.3,0.3-0.4,0.3l-0.9-0.1
					c-0.7-0.1-1.2-0.3-1.6-0.7c-0.3-0.3-0.6-0.9-0.6-1.4c0-0.7,0.3-1.3,0.7-1.7c0.4-0.4,1.2-0.6,2-0.6c0.6,0,1,0,1.4,0.1
					c0.4,0.1,0.7,0.4,1.2,0.7l-1,1c-0.3-0.1-0.4-0.3-0.7-0.4c-0.3-0.1-0.6-0.1-0.9-0.1c-0.4,0-0.7,0.1-0.9,0.3
					c-0.1,0.1-0.3,0.4-0.3,0.7c0,0.1,0,0.3,0,0.3c0,0.1,0.1,0.1,0.3,0.3c0.1,0.1,0.3,0.1,0.7,0.3l0.9,0.1c0.7,0.1,1.2,0.3,1.4,0.6
					c0.3,0.3,0.4,0.6,0.6,0.7c0.1,0.3,0.1,0.6,0.1,1c0,0.7-0.3,1.3-0.9,1.7C117,49.5,116.3,49.7,115.4,49.7z"/>
				<path class="st0" d="M125.6,48.8c-0.3,0.3-0.6,0.4-0.9,0.6c-0.3,0.1-0.7,0.1-1.2,0.1s-0.9,0-1.2-0.1c-0.3-0.1-0.7-0.4-1-0.7
					s-0.6-0.7-0.6-1.2c-0.1-0.4-0.1-1-0.1-1.9c0-0.9,0-1.4,0.1-1.9s0.3-0.9,0.6-1.2c0.3-0.3,0.6-0.6,1-0.7c0.3-0.1,0.7-0.1,1.2-0.1
					s0.9,0,1.2,0.1c0.3,0.1,0.7,0.4,1,0.7s0.6,0.7,0.6,1.2c0.1,0.4,0.1,1,0.1,1.9c0,0.9,0,1.4-0.1,1.9
					C126.2,48.1,126.1,48.5,125.6,48.8z M124.5,43.6c-0.3-0.3-0.6-0.4-1-0.4c-0.1,0-0.4,0-0.6,0.1c-0.2,0.1-0.3,0.1-0.4,0.3
					c-0.1,0.1-0.3,0.3-0.3,0.6c0,0.3,0,0.7,0,1.6c0,0.7,0,1.3,0,1.6s0.1,0.4,0.4,0.7c0.1,0.3,0.6,0.3,0.9,0.3c0.4,0,0.7-0.1,0.9-0.3
					c0.1-0.3,0.3-0.4,0.4-0.7c0-0.3,0.1-0.7,0.1-1.4s0-1.3-0.1-1.4C124.8,44.1,124.6,43.8,124.5,43.6z"/>
				<path class="st0" d="M131.7,49.7c-0.4,0-0.9-0.1-1.2-0.3c-0.3-0.1-0.7-0.4-1-0.7s-0.6-0.7-0.6-1.2c-0.1-0.4-0.1-1-0.1-1.9
					c0-0.9,0-1.4,0.1-1.9s0.3-0.9,0.6-1.2c0.3-0.3,0.6-0.6,1-0.7c0.3-0.1,0.7-0.1,1.2-0.1c0.7,0,1.4,0.1,1.9,0.6
					c0.6,0.4,0.9,1,1,1.9H133c-0.1-0.3-0.3-0.6-0.4-0.9c-0.1-0.1-0.4-0.3-0.9-0.3c-0.4,0-0.7,0.1-0.9,0.3c-0.1,0.1-0.3,0.4-0.4,0.7
					c0,0.3-0.1,0.9-0.1,1.4c0,0.7,0,1.3,0.1,1.4c0,0.3,0.1,0.6,0.4,0.7c0.1,0.3,0.4,0.3,0.9,0.3c0.4,0,0.7-0.1,0.9-0.3
					s0.4-0.4,0.4-0.9h1.6c-0.1,0.7-0.4,1.4-1,1.9C133.1,49.5,132.4,49.7,131.7,49.7z"/>
				<path class="st0" d="M137,49.7v-7.8h1.4v7.8H137z"/>
				<path class="st0" d="M141.5,49.7v-7.8h5v1.3h-3.6v1.9h3v1.3h-3v1.9h3.6v1.3L141.5,49.7L141.5,49.7z"/>
				<path class="st0" d="M152.3,43.3v6.3h-1.4v-6.3h-2V42h5.6v1.3H152.3z"/>
				<path class="st0" d="M160.2,46.5v3.2h-1.4v-3.2l-2.3-4.6h1.6l1.4,3.2l1.4-3.2h1.6L160.2,46.5z"/>
			</g>
			<g>
				<path class="st0" d="M6.7,2.1c0.6,0,1,0.1,1.3,0.4c0.3,0.3,0.5,0.6,0.5,1S8.4,4.3,8.1,4.6C7.7,4.9,7.3,5,6.8,5H5.9
					C5.9,5,5.8,5,5.8,5.1v1.7c0,0.1,0,0.2,0.1,0.2C6,7,6.1,7.1,6.2,7.1l0.3,0c0.1,0,0.1,0,0.1,0.1s0,0.1-0.1,0.1l-0.9,0l-0.8,0
					c-0.1,0-0.1,0-0.1-0.1c0-0.1,0-0.1,0.1-0.1l0.2,0c0.2,0,0.3-0.1,0.3-0.3V2.6c0-0.2-0.1-0.3-0.3-0.3l-0.2,0c-0.1,0-0.1,0-0.1-0.1
					c0-0.1,0-0.1,0.1-0.1l1,0H6.7z M7.5,4.3c0.2-0.2,0.3-0.5,0.3-0.8S7.7,2.9,7.5,2.7C7.3,2.5,7,2.4,6.6,2.4H6.1
					c-0.2,0-0.3,0.1-0.3,0.3v1.9c0,0.1,0,0.1,0.1,0.1h0.7C7,4.7,7.3,4.6,7.5,4.3z"/>
				<path class="st0" d="M10,3.5c0.1,0,0.1,0.1,0.1,0.2V4c0,0,0,0,0,0s0,0,0.1,0c0.1-0.1,0.3-0.3,0.5-0.4c0.2-0.1,0.4-0.2,0.5-0.2
					s0.3,0,0.4,0.1s0.1,0.1,0.1,0.1v0.6c0,0.1,0,0.1-0.1,0.1c0,0-0.1,0-0.2-0.1C11.3,4,11.1,4,10.9,4c-0.2,0-0.4,0.1-0.6,0.3
					c-0.2,0.2-0.2,0.5-0.2,0.9v1.6c0,0.2,0.1,0.3,0.4,0.3l0.3,0c0.1,0,0.1,0,0.1,0.1c0,0.1,0,0.1-0.1,0.1l-1,0L9,7.3
					c-0.1,0-0.1,0-0.1-0.1c0-0.1,0-0.1,0.1-0.1l0.2,0c0.1,0,0.2,0,0.2-0.1c0.1-0.1,0.1-0.1,0.1-0.2V4.1c0-0.1,0-0.2-0.1-0.2
					c0,0-0.1-0.1-0.2-0.1H9c-0.1,0-0.1,0-0.1-0.1s0-0.1,0.1-0.1L10,3.5C10,3.5,10,3.5,10,3.5z"/>
				<path class="st0" d="M14,3.5c0.6,0,1,0.2,1.4,0.5c0.3,0.4,0.5,0.8,0.5,1.4s-0.2,1-0.5,1.4C15,7.2,14.6,7.3,14,7.3
					s-1-0.2-1.4-0.5c-0.3-0.4-0.5-0.8-0.5-1.4c0-0.6,0.2-1,0.5-1.4C13,3.6,13.5,3.5,14,3.5z M15,4.4c-0.1-0.2-0.2-0.3-0.4-0.4
					c-0.2-0.1-0.4-0.2-0.6-0.2c-0.4,0-0.7,0.1-0.9,0.4c-0.2,0.3-0.3,0.6-0.3,1.1c0,0.5,0.1,0.9,0.2,1.2c0.1,0.2,0.2,0.3,0.4,0.4
					C13.6,7,13.8,7,14,7c0.4,0,0.7-0.1,0.9-0.4c0.2-0.3,0.3-0.6,0.3-1.1C15.2,5.1,15.1,4.7,15,4.4z"/>
				<path class="st0" d="M20.2,3.9v2.7c0,0.2,0,0.3,0.1,0.4s0.2,0.1,0.4,0.1c0.1,0,0.1,0,0.1,0.1c0,0.1-0.1,0.1-0.3,0.1
					c-0.3,0-0.5-0.1-0.8-0.4c0,0,0,0,0-0.1c0,0,0,0,0-0.1c0,0,0,0-0.1,0c0,0-0.1,0-0.1,0.1c-0.3,0.3-0.7,0.4-1.1,0.4s-0.8-0.1-1-0.4
					S17,6.4,17,5.9V4c0-0.1,0-0.2-0.1-0.2s-0.1-0.1-0.2-0.1h-0.3c0,0,0,0-0.1,0c0,0,0,0,0-0.1c0-0.1,0-0.1,0.1-0.1l1-0.1
					c0,0,0,0,0,0c0.1,0,0.1,0,0.1,0.1c0,0,0,0,0,0.1c0,0,0,0.1,0,0.2V6c0,0.3,0.1,0.5,0.3,0.7C18,6.9,18.3,7,18.6,7s0.5-0.1,0.8-0.3
					c0.2-0.2,0.3-0.5,0.3-0.8V4c0-0.1,0-0.2-0.1-0.2s-0.1-0.1-0.2-0.1H19c0,0,0,0-0.1,0c0,0,0,0,0-0.1c0-0.1,0-0.1,0.1-0.1l1-0.1
					c0,0,0,0,0,0c0.1,0,0.1,0,0.1,0.1c0,0,0,0,0,0.1C20.2,3.7,20.2,3.8,20.2,3.9z"/>
				<path class="st0" d="M24.7,1.3c0.1,0,0.1,0.1,0.1,0.2v5.1c0,0.2,0,0.3,0.1,0.4s0.2,0.1,0.3,0.1c0.1,0,0.2,0,0.2,0.1
					c0,0.1-0.1,0.1-0.3,0.1c-0.3,0-0.6-0.1-0.8-0.3c0,0-0.1-0.1-0.1-0.1S24.2,7,24.1,7c-0.1,0.1-0.2,0.1-0.4,0.2
					c-0.2,0.1-0.4,0.1-0.6,0.1c-0.6,0-1-0.2-1.4-0.5c-0.3-0.4-0.5-0.8-0.5-1.4s0.2-1,0.6-1.4c0.4-0.4,0.8-0.6,1.3-0.6
					c0.4,0,0.7,0.1,1,0.3c0,0,0,0,0.1,0c0,0,0,0,0-0.1V1.9c0-0.1,0-0.2-0.1-0.2S24.1,1.7,24,1.7h-0.3c0,0,0,0-0.1,0c0,0,0,0,0-0.1
					c0-0.1,0-0.1,0.1-0.1L24.7,1.3C24.7,1.3,24.7,1.3,24.7,1.3z M24.2,6.2V4.6c0-0.2-0.1-0.4-0.3-0.6c-0.2-0.2-0.5-0.2-0.8-0.2
					c-0.4,0-0.7,0.1-0.9,0.4c-0.2,0.2-0.3,0.6-0.3,1c0,0.6,0.1,1,0.4,1.3S22.8,7,23.2,7c0.3,0,0.5-0.1,0.7-0.2
					C24.1,6.6,24.2,6.5,24.2,6.2z"/>
				<path class="st0" d="M30.2,6.3c0,0.3-0.1,0.6-0.4,0.8s-0.6,0.3-0.9,0.3c-0.4,0-0.7,0-0.9-0.1S27.6,7,27.6,6.9V6.3
					c0-0.1,0-0.1,0.1-0.1s0.1,0,0.1,0.1C28,6.8,28.3,7,28.8,7C29,7,29.2,7,29.4,6.9c0.1-0.1,0.2-0.3,0.2-0.4c0-0.2-0.1-0.3-0.2-0.4
					c-0.1-0.1-0.3-0.2-0.5-0.3s-0.4-0.2-0.6-0.3S28,5.2,27.8,5c-0.1-0.2-0.2-0.3-0.2-0.5c0-0.3,0.1-0.6,0.3-0.7s0.5-0.3,0.9-0.3
					c0.3,0,0.5,0,0.7,0.1c0.2,0.1,0.3,0.2,0.3,0.3v0.6c0,0.1,0,0.1-0.1,0.1c-0.1,0-0.1,0-0.1-0.1c-0.1-0.5-0.4-0.7-0.8-0.7
					c-0.2,0-0.4,0-0.5,0.1c-0.1,0.1-0.2,0.2-0.2,0.4c0,0.2,0.1,0.3,0.2,0.4c0.1,0.1,0.3,0.2,0.5,0.3s0.4,0.2,0.6,0.3
					s0.4,0.2,0.5,0.4C30.1,5.9,30.2,6.1,30.2,6.3z"/>
				<path class="st0" d="M34.4,3.9v2.7c0,0.2,0,0.3,0.1,0.4s0.2,0.1,0.4,0.1c0.1,0,0.1,0,0.1,0.1c0,0.1-0.1,0.1-0.3,0.1
					c-0.3,0-0.5-0.1-0.8-0.4c0,0,0,0,0-0.1c0,0,0,0,0-0.1c0,0,0,0-0.1,0c0,0-0.1,0-0.1,0.1c-0.3,0.3-0.7,0.4-1.1,0.4s-0.8-0.1-1-0.4
					s-0.4-0.6-0.4-1.1V4c0-0.1,0-0.2-0.1-0.2S31,3.8,31,3.8h-0.3c0,0,0,0-0.1,0c0,0,0,0,0-0.1c0-0.1,0-0.1,0.1-0.1l1-0.1
					c0,0,0,0,0,0c0.1,0,0.1,0,0.1,0.1c0,0,0,0,0,0.1c0,0,0,0.1,0,0.2V6c0,0.3,0.1,0.5,0.3,0.7C32.3,6.9,32.5,7,32.8,7
					s0.5-0.1,0.8-0.3c0.2-0.2,0.3-0.5,0.3-0.8V4c0-0.1,0-0.2-0.1-0.2s-0.1-0.1-0.2-0.1h-0.3c0,0,0,0-0.1,0c0,0,0,0,0-0.1
					c0-0.1,0-0.1,0.1-0.1l1-0.1c0,0,0,0,0,0c0.1,0,0.1,0,0.1,0.1c0,0,0,0,0,0.1C34.5,3.7,34.4,3.8,34.4,3.9z"/>
				<path class="st0" d="M36.3,3.5c0.1,0,0.1,0.1,0.1,0.2v0.1c0,0.1,0,0.1,0.1,0c0,0,0.1-0.1,0.2-0.1c0.1,0,0.2-0.1,0.3-0.1
					s0.3-0.1,0.5-0.1c0.6,0,1,0.2,1.4,0.5c0.3,0.3,0.5,0.8,0.5,1.4s-0.2,1.1-0.5,1.4c-0.4,0.4-0.8,0.5-1.3,0.5c-0.4,0-0.7-0.1-1-0.3
					c0,0,0,0-0.1,0c0,0,0,0,0,0.1V9c0,0.2,0.1,0.3,0.3,0.3l0.1,0c0.1,0,0.1,0,0.1,0.1s0,0.1-0.1,0.1l-0.7,0l-0.8,0
					c-0.1,0-0.1,0-0.1-0.1s0-0.1,0.1-0.1l0.2,0c0.1,0,0.2,0,0.2-0.1c0.1-0.1,0.1-0.1,0.1-0.2V4.1c0-0.1,0-0.2-0.1-0.2
					c0,0-0.1-0.1-0.2-0.1h-0.3c-0.1,0-0.1,0-0.1-0.1s0-0.1,0.1-0.1L36.3,3.5C36.3,3.5,36.3,3.5,36.3,3.5z M38.7,5.6
					c0-0.6-0.1-1.1-0.4-1.4c-0.2-0.3-0.5-0.5-0.9-0.5c-0.4,0-0.6,0.1-0.8,0.3c-0.2,0.2-0.3,0.4-0.3,0.6v1.5c0,0.2,0.1,0.4,0.3,0.6
					C36.9,6.9,37.2,7,37.4,7c0.4,0,0.7-0.1,0.9-0.4C38.6,6.4,38.7,6.1,38.7,5.6z"/>
				<path class="st0" d="M40.9,3.5C41,3.5,41,3.5,41,3.6v0.1c0,0.1,0,0.1,0.1,0c0,0,0.1-0.1,0.2-0.1c0.1,0,0.2-0.1,0.3-0.1
					s0.3-0.1,0.5-0.1c0.6,0,1,0.2,1.4,0.5C43.8,4.3,44,4.8,44,5.4s-0.2,1.1-0.5,1.4c-0.4,0.4-0.8,0.5-1.3,0.5c-0.4,0-0.7-0.1-1-0.3
					c0,0,0,0-0.1,0c0,0,0,0,0,0.1V9c0,0.2,0.1,0.3,0.3,0.3l0.1,0c0.1,0,0.1,0,0.1,0.1s0,0.1-0.1,0.1l-0.7,0l-0.8,0
					c-0.1,0-0.1,0-0.1-0.1s0-0.1,0.1-0.1l0.2,0c0.1,0,0.2,0,0.2-0.1c0.1-0.1,0.1-0.1,0.1-0.2V4.1c0-0.1,0-0.2-0.1-0.2
					c0,0-0.1-0.1-0.2-0.1h-0.3c-0.1,0-0.1,0-0.1-0.1s0-0.1,0.1-0.1L40.9,3.5C40.9,3.5,40.9,3.5,40.9,3.5z M43.3,5.6
					c0-0.6-0.1-1.1-0.4-1.4c-0.2-0.3-0.5-0.5-0.9-0.5c-0.4,0-0.6,0.1-0.8,0.3C41.1,4.2,41,4.4,41,4.7v1.5c0,0.2,0.1,0.4,0.3,0.6
					C41.5,6.9,41.8,7,42,7c0.4,0,0.7-0.1,0.9-0.4C43.2,6.4,43.3,6.1,43.3,5.6z"/>
				<path class="st0" d="M46.6,3.5c0.6,0,1,0.2,1.4,0.5c0.3,0.4,0.5,0.8,0.5,1.4s-0.2,1-0.5,1.4c-0.3,0.4-0.8,0.5-1.4,0.5
					s-1-0.2-1.4-0.5c-0.3-0.4-0.5-0.8-0.5-1.4c0-0.6,0.2-1,0.5-1.4C45.6,3.6,46,3.5,46.6,3.5z M47.5,4.4c-0.1-0.2-0.2-0.3-0.4-0.4
					c-0.2-0.1-0.4-0.2-0.6-0.2c-0.4,0-0.7,0.1-0.9,0.4c-0.2,0.3-0.3,0.6-0.3,1.1c0,0.5,0.1,0.9,0.2,1.2c0.1,0.2,0.2,0.3,0.4,0.4
					C46.1,7,46.3,7,46.5,7c0.4,0,0.7-0.1,0.9-0.4c0.2-0.3,0.3-0.6,0.3-1.1C47.8,5.1,47.7,4.7,47.5,4.4z"/>
				<path class="st0" d="M50,3.5c0.1,0,0.1,0.1,0.1,0.2V4c0,0,0,0,0,0s0,0,0.1,0c0.1-0.1,0.3-0.3,0.5-0.4c0.2-0.1,0.4-0.2,0.5-0.2
					s0.3,0,0.4,0.1s0.1,0.1,0.1,0.1v0.6c0,0.1,0,0.1-0.1,0.1c0,0-0.1,0-0.2-0.1C51.4,4,51.2,4,51,4c-0.2,0-0.4,0.1-0.6,0.3
					c-0.2,0.2-0.2,0.5-0.2,0.9v1.6c0,0.2,0.1,0.3,0.4,0.3l0.3,0c0.1,0,0.1,0,0.1,0.1c0,0.1,0,0.1-0.1,0.1l-1,0l-0.8,0
					c-0.1,0-0.1,0-0.1-0.1c0-0.1,0-0.1,0.1-0.1l0.2,0c0.1,0,0.2,0,0.2-0.1c0.1-0.1,0.1-0.1,0.1-0.2V4.1c0-0.1,0-0.2-0.1-0.2
					c0,0-0.1-0.1-0.2-0.1h-0.3c-0.1,0-0.1,0-0.1-0.1s0-0.1,0.1-0.1L50,3.5C50,3.5,50,3.5,50,3.5z"/>
				<path class="st0" d="M54.5,6.9c0,0.1-0.1,0.2-0.3,0.3s-0.4,0.1-0.6,0.1c-0.4,0-0.6-0.1-0.8-0.3c-0.2-0.2-0.2-0.5-0.2-0.9V4
					c0-0.1,0-0.1-0.1-0.1H52c0,0,0,0-0.1,0c0,0,0,0,0-0.1l0-0.2c0-0.1,0-0.1,0.1-0.1h0.4c0,0,0.1,0,0.1-0.1l0.1-1
					c0-0.1,0.1-0.1,0.1-0.1c0.1,0,0.1,0,0.1,0.1l0.2,1c0,0.1,0.1,0.1,0.1,0.1h1.1c0.1,0,0.1,0,0.1,0.1l0,0.2c0,0.1,0,0.1-0.1,0.1
					h-1.1c0,0-0.1,0-0.1,0.1v2.3c0,0.5,0.2,0.7,0.5,0.7c0.2,0,0.3,0,0.5-0.1L54.5,6.9C54.5,6.8,54.5,6.8,54.5,6.9z"/>
				<path class="st0" d="M58.2,4.9c0,0.3-0.1,0.4-0.4,0.4h-2.1c-0.1,0-0.1,0-0.1,0.1c0,0.5,0.1,0.8,0.4,1.1c0.3,0.3,0.6,0.4,1,0.4
					s0.7-0.1,0.9-0.2c0.1,0,0.1,0,0.2,0c0.1,0.1,0,0.1,0,0.2c-0.3,0.3-0.7,0.4-1.1,0.4c-0.6,0-1.1-0.2-1.4-0.5
					C55,6.5,54.9,6,54.9,5.4c0-0.5,0.2-0.9,0.5-1.3c0.3-0.4,0.7-0.6,1.2-0.6s0.9,0.1,1.1,0.4S58.2,4.5,58.2,4.9z M57.5,4.8
					c0-0.3-0.1-0.5-0.2-0.8c-0.2-0.2-0.4-0.3-0.7-0.3s-0.5,0.1-0.7,0.4c-0.2,0.2-0.3,0.5-0.3,0.8c0,0.1,0,0.1,0.1,0.1h1.6
					C57.4,5,57.5,5,57.5,4.8z"/>
				<path class="st0" d="M59.7,3.5c0.1,0,0.1,0.1,0.1,0.2V4c0,0,0,0,0,0s0,0,0.1,0c0.1-0.1,0.3-0.3,0.5-0.4c0.2-0.1,0.4-0.2,0.5-0.2
					s0.3,0,0.4,0.1s0.1,0.1,0.1,0.1v0.6c0,0.1,0,0.1-0.1,0.1c0,0-0.1,0-0.2-0.1C61.1,4,60.9,4,60.7,4c-0.2,0-0.4,0.1-0.6,0.3
					c-0.2,0.2-0.2,0.5-0.2,0.9v1.6c0,0.2,0.1,0.3,0.4,0.3l0.3,0c0.1,0,0.1,0,0.1,0.1c0,0.1,0,0.1-0.1,0.1l-1,0l-0.8,0
					c-0.1,0-0.1,0-0.1-0.1c0-0.1,0-0.1,0.1-0.1l0.2,0c0.1,0,0.2,0,0.2-0.1c0.1-0.1,0.1-0.1,0.1-0.2V4.1c0-0.1,0-0.2-0.1-0.2
					c0,0-0.1-0.1-0.2-0.1h-0.3c-0.1,0-0.1,0-0.1-0.1s0-0.1,0.1-0.1L59.7,3.5C59.7,3.5,59.7,3.5,59.7,3.5z"/>
				<path class="st0" d="M65.5,3.5c0.6,0,1,0.2,1.4,0.5c0.3,0.4,0.5,0.8,0.5,1.4s-0.2,1-0.5,1.4c-0.3,0.4-0.8,0.5-1.4,0.5
					s-1-0.2-1.4-0.5c-0.3-0.4-0.5-0.8-0.5-1.4c0-0.6,0.2-1,0.5-1.4C64.5,3.6,64.9,3.5,65.5,3.5z M66.5,4.4c-0.1-0.2-0.2-0.3-0.4-0.4
					c-0.2-0.1-0.4-0.2-0.6-0.2c-0.4,0-0.7,0.1-0.9,0.4c-0.2,0.3-0.3,0.6-0.3,1.1c0,0.5,0.1,0.9,0.2,1.2c0.1,0.2,0.2,0.3,0.4,0.4
					C65,7,65.2,7,65.5,7c0.4,0,0.7-0.1,0.9-0.4c0.2-0.3,0.3-0.6,0.3-1.1C66.7,5.1,66.6,4.7,66.5,4.4z"/>
				<path class="st0" d="M69.1,4v2.8c0,0.1,0,0.2,0.1,0.2c0.1,0.1,0.1,0.1,0.2,0.1l0.3,0c0.1,0,0.1,0,0.1,0.1c0,0.1,0,0.1-0.1,0.1
					l-0.9,0l-0.7,0c-0.1,0-0.1,0-0.1-0.1c0-0.1,0-0.1,0.1-0.1l0.1,0c0.2,0,0.3-0.1,0.3-0.3V4c0-0.1,0-0.1-0.1-0.1h-0.5
					c-0.1,0-0.1,0-0.1-0.1V3.8c0,0,0-0.1,0.1-0.1l0.4-0.1c0.1,0,0.1-0.1,0.1-0.1v0c0-0.6,0.1-1.1,0.4-1.5c0.3-0.4,0.7-0.6,1.2-0.6
					c0.2,0,0.4,0,0.5,0.1c0.2,0.1,0.3,0.2,0.3,0.3v0.5c0,0,0,0.1,0,0.1c0,0,0,0-0.1,0c-0.1,0-0.1,0-0.2-0.1
					c-0.1-0.1-0.2-0.3-0.3-0.3c-0.1-0.1-0.3-0.1-0.4-0.1c-0.3,0-0.5,0.1-0.6,0.3c-0.1,0.2-0.2,0.5-0.2,0.9v0.5c0,0.1,0,0.1,0.1,0.1
					h1c0.1,0,0.1,0,0.1,0.1l0,0.2c0,0.1,0,0.1-0.1,0.1L69.1,4C69.1,3.9,69.1,3.9,69.1,4z"/>
			</g>
		</g>
	</g>
</g>
</svg>
