<?xml version="1.0" encoding="utf-8"?>
<!-- Generator: Adobe Illustrator 22.1.0, SVG Export Plug-In . SVG Version: 6.00 Build 0)  -->
<svg version="1.1" id="Layer_1" xmlns="http://www.w3.org/2000/svg" xmlns:xlink="http://www.w3.org/1999/xlink" x="0px" y="0px"
	 viewBox="0 0 113.3 64.3" style="enable-background:new 0 0 113.3 64.3;" xml:space="preserve">
<style type="text/css">
	.st0{fill:#50B598;}
</style>
<g>
	<path class="st0" d="M3.6,50.2c2.6-14.1,11-23.9,15.8-36C22.4,6.8,21.8-0.3,12,0C9.1,1.3,7,1.6,4.8,3.4c0,0.2,0,0.5,0,0.7
		c0.3,0.1,0.6,0.2,1,0.2c1.1-3.4,11.2-4.8,13-1C21.3,6.5,18.4,14,17,16.8C11.8,27.6,5,37.7,2.4,50.6C0,63,16.5,68.7,22.6,60.5
		c0-0.3,0-0.6,0-1c-0.5-0.1-1-0.2-1.4-0.2C17.9,68,1.4,61.8,3.6,50.2z"/>
	<path class="st0" d="M7.9,24c0.2-0.3,0.3-0.6,0.5-1c-0.1-0.2-0.2-0.3-0.2-0.5c-2-0.1-4-0.2-6-0.2c-0.4,0.1-0.8,0.2-1.2,0.2
		c-0.2,0.2-0.3,0.5-0.5,0.7C1.7,25,5.2,23.7,7.9,24z"/>
	<path class="st0" d="M7,25.9c0.2-0.1,0.3-0.2,0.5-0.2c0-0.2,0-0.5,0-0.7c-0.6-0.3-0.8-0.4-1.9-0.5c-1.7,0.2-3.4,0.5-5,0.7
		c-0.2,0.2-0.3,0.5-0.5,0.7C1.4,26.6,5,26.3,7,25.9z"/>
	<path class="st0" d="M61.4,34.1c-1.6,0-3.2,0-4.8,0c0.3-2.1,2.1-3.6,2.2-7c-0.2-0.2-0.5-0.3-0.7-0.5c-0.2,0-0.5,0-0.7,0
		c-0.9,2.1-1.6,4.8-2.2,6.7c-0.8,0.5-2.4,0.8-3.4,1.2c0.1,1.1,0.1,1.2,1.9,1.2c-1,1.9-2.6,3.7-2.9,6.2c0.4,0.1,0.8,0.2,1.2,0.2
		c1-2.1,2.1-4.2,3.1-6.2c2-0.5,4-1,6-1.4C61.3,34.4,61.4,34.2,61.4,34.1z"/>
	<path class="st0" d="M61.4,41c1.2-4.9,7.2-10,7.7-13.7c-0.4-0.2-0.8-0.5-1.2-0.7c-3.2,3.1-7.7,10.5-8.6,15.4
		c0.1,0.1,0.2,0.2,0.2,0.2c0.7,0.1,1.4,0.2,2.2,0.2c0.1,0,0.2,0,0.2,0C62.5,41.4,62.8,41.6,61.4,41z"/>
	<path class="st0" d="M108.2,30.7c-3.3,0.6-6.6,1.3-9.8,1.9C91.7,35,85,37.4,78.2,39.8c-2.6,0.8-8.2,2.6-11.5,1.2
		c-0.2-0.2-0.5-0.3-0.7-0.5c1-1.4,3.9-2.3,5.5-2.9c0.6-0.9,0.7-0.9,0.7-1.9c-0.2-0.2-0.3-0.5-0.5-0.7c-3.1,0.1-8.7,2.9-7.2,6.5
		c0.1,0.2,0.2,0.5,0.2,0.7c15.9,3.5,32.5-14.2,46.6-9.6c0.1,0.2,0.2,0.5,0.2,0.7c-1.3,1.8-3.7,2.1-5.3,3.6c-0.2,0-0.3,0-0.5,0
		c0,0.3,0,0.6,0,1c3.1-0.4,6-2.1,7.4-4.3C113.1,31,110.9,30.7,108.2,30.7z"/>
	<path class="st0" d="M47.3,34.1c-2,1.8-4.2,3.6-6.7,4.8c0.7-1.4,1.4-2.7,2.2-4.1c-0.5-0.2-1-0.5-1.4-0.7c-0.8,1.1-1.3,2.3-2.6,2.9
		c-0.9,0.1-1.8,0.2-2.6,0.2c0-0.6,0-1.3,0-1.9c-0.2-0.2-0.5-0.3-0.7-0.5c-0.3,0.2-0.6,0.3-1,0.5c-0.2,0.6-0.3,1.3-0.5,1.9
		c0.1,0.2,0.2,0.5,0.2,0.7c1.2,0.6,2,1,4.1,1c-1.4,5.4-8.8,4.6-8.2,12c0.8,0.3,1.6,0.6,2.4,1c5.7-3.7,4.6-12,13.2-14.4
		c0.1,1,0.2,1.9,0.2,2.9c0.2,0.2,0.5,0.5,0.7,0.7c0.2-0.1,0.5-0.2,0.7-0.2c0.4-0.4,1.3-5,1.4-6.2c-0.2-0.2-0.3-0.3-0.5-0.5
		C47.9,34.1,47.6,34.1,47.3,34.1z M33.1,49.4c-0.4,0.2-0.8,0.5-1.2,0.7c-0.2-0.3-0.5-0.6-0.7-1c1.1-2.8,2.7-3.7,4.3-5.8
		c0.2,0,0.5,0,0.7,0C35.2,45.4,34.2,47.4,33.1,49.4z"/>
	<path class="st0" d="M30.2,41c1.4-1,2.2-2.2,2.2-4.6c-0.1-0.2-0.2-0.3-0.2-0.5c-2.6-1.6-4.8,0.6-6.2,0c-1-0.4-0.9-1.3-2.9-1.4
		c-1,0.3-1.9,0.6-2.9,1c-0.5,1.3-1,2.6-1.4,3.8c0.1,0.1,0.2,0.2,0.2,0.2c0.2,0.2,0.5,0.5,0.7,0.7c1.5-1,1.5-2.8,3.1-3.6
		c0.6,0,1.1,0,1.7,0c0.1,1.6-0.8,2.2,0.5,3.4c1.7-1.1,2-2.5,4.1-3.4c2.7,0.3,0.7,2.4,0.2,3.8C29.6,40.7,29.9,40.9,30.2,41z"/>
</g>
</svg>
